<svg width="17" height="16" viewBox="0 0 17 16" fill="none" xmlns="http://www.w3.org/2000/svg">
<path d="M8.49935 12.3334C10.8926 12.3334 12.8327 10.3933 12.8327 8.00002C12.8327 5.60679 10.8926 3.66669 8.49935 3.66669C6.10612 3.66669 4.16602 5.60679 4.16602 8.00002C4.16602 10.3933 6.10612 12.3334 8.49935 12.3334Z" stroke="#525252" stroke-width="1.16667" stroke-linecap="round" stroke-linejoin="round"/>
<path d="M13.2607 12.76L13.174 12.6734M13.174 3.32671L13.2607 3.24004L13.174 3.32671ZM3.74065 12.76L3.82732 12.6734L3.74065 12.76ZM8.50065 1.38671V1.33337V1.38671ZM8.50065 14.6667V14.6134V14.6667ZM1.88732 8.00004H1.83398H1.88732ZM15.1673 8.00004H15.114H15.1673ZM3.82732 3.32671L3.74065 3.24004L3.82732 3.32671Z" stroke="#525252" stroke-width="1.55556" stroke-linecap="round" stroke-linejoin="round"/>
</svg>
